<svg width="191" height="92" viewBox="0 0 191 92" fill="none" xmlns="http://www.w3.org/2000/svg">
<path d="M0.216 73.856C0.216 71.04 0.888 67.104 2.232 62.048C3.576 56.928 5.464 50.976 7.896 44.192C11.864 33.376 15.576 24.384 19.032 17.216C22.552 9.984 25.976 4.352 29.304 0.319996C30.072 0.447994 31 0.767994 32.088 1.27999C33.24 1.792 34.36 2.368 35.448 3.008C36.536 3.584 37.496 4.192 38.328 4.832C39.224 5.47199 39.8 5.984 40.056 6.368C35.064 12.256 30.68 18.592 26.904 25.376C23.128 32.16 19.672 39.936 16.536 48.704C13.848 56.256 11.8 63.072 10.392 69.152C8.984 75.168 8.28 80.192 8.28 84.224C8.28 85.312 8.28 85.984 8.28 86.24C8.28 86.496 8.312 86.752 8.376 87.008C7.48 86.88 6.712 86.656 6.072 86.336C5.432 86.016 5.016 85.632 4.824 85.184C4.696 84.864 4.344 84.384 3.768 83.744C3.192 83.168 2.68 82.72 2.232 82.4C1.656 82.016 1.176 81.024 0.792001 79.424C0.408 77.76 0.216 75.904 0.216 73.856ZM23.0955 73.568C23.0955 72.992 23.1275 72.288 23.1915 71.456C23.3195 70.56 23.5115 69.408 23.7675 68C24.0235 66.528 24.3435 64.768 24.7275 62.72C25.1755 60.672 25.7195 58.208 26.3595 55.328C26.4875 54.688 26.7755 53.664 27.2235 52.256C27.6715 50.848 28.2475 49.376 28.9515 47.84C29.7195 46.24 30.6155 44.704 31.6395 43.232C32.7275 41.76 34.0075 40.672 35.4795 39.968C36.5675 40.224 38.0075 40.896 39.7995 41.984C41.5915 43.008 43.1275 44.448 44.4075 46.304C42.9355 47.968 41.6875 49.632 40.6635 51.296C39.7035 52.96 38.8075 54.688 37.9755 56.48C37.2075 58.272 36.4715 60.128 35.7675 62.048C35.1275 63.968 34.3915 65.984 33.5595 68.096C32.8555 69.888 32.2155 71.744 31.6395 73.664C31.0635 75.52 30.7435 77.152 30.6795 78.56C30.6795 79.712 30.6475 80.512 30.5835 80.96C30.5835 81.472 30.4235 81.728 30.1035 81.728C29.8475 81.728 29.3355 81.568 28.5675 81.248C27.7995 80.928 26.9995 80.448 26.1675 79.808C25.3995 79.104 24.6955 78.24 24.0555 77.216C23.4155 76.192 23.0955 74.976 23.0955 73.568ZM41.4315 31.904C41.4315 31.52 41.5275 30.944 41.7195 30.176C41.3995 29.856 41.1115 29.376 40.8555 28.736C40.6635 28.096 40.5675 27.52 40.5675 27.008C40.5675 26.432 40.6315 25.664 40.7595 24.704C40.9515 23.68 41.1755 22.592 41.4315 21.44C41.6875 20.288 42.0075 19.104 42.3915 17.888C42.7755 16.608 43.1595 15.456 43.5435 14.432C44.3115 14.432 45.2395 14.656 46.3275 15.104C47.4795 15.488 48.6315 16.032 49.7835 16.736C50.9355 17.376 51.9915 18.112 52.9515 18.944C53.9115 19.712 54.6475 20.448 55.1595 21.152C54.4555 21.856 53.5275 22.848 52.3755 24.128C51.2235 25.344 50.1035 26.656 49.0155 28.064C47.9275 29.408 46.9355 30.688 46.0395 31.904C45.1435 33.12 44.5675 33.984 44.3115 34.496C43.5435 34.368 42.8715 34.048 42.2955 33.536C41.7195 32.96 41.4315 32.416 41.4315 31.904ZM61.239 33.44C62.903 33.952 64.471 35.104 65.943 36.896C67.415 38.624 68.503 40.544 69.207 42.656C68.503 44.384 67.415 46.464 65.943 48.896C64.471 51.328 62.999 53.824 61.527 56.384C60.055 58.88 58.711 61.28 57.495 63.584C56.343 65.824 55.671 67.68 55.479 69.152C56.503 68.064 57.623 66.816 58.839 65.408C60.119 63.936 61.335 62.496 62.487 61.088C63.703 59.616 64.823 58.304 65.847 57.152C66.871 55.936 67.671 55.04 68.247 54.464C69.463 53.184 70.903 51.712 72.567 50.048C74.231 48.32 75.959 46.72 77.751 45.248C79.607 43.712 81.463 42.432 83.319 41.408C85.175 40.32 86.871 39.776 88.407 39.776C90.071 39.776 91.447 40.352 92.535 41.504C93.687 42.592 94.583 43.744 95.223 44.96C95.223 45.088 94.967 45.28 94.455 45.536C94.007 45.728 93.335 46.336 92.439 47.36C91.543 48.512 90.519 50.112 89.367 52.16C88.279 54.144 87.191 56.32 86.103 58.688C85.079 60.992 84.215 63.36 83.511 65.792C82.807 68.224 82.455 70.432 82.455 72.416C82.455 74.016 82.647 75.04 83.031 75.488C83.479 75.936 84.087 76.16 84.855 76.16C85.559 76.16 86.295 76 87.063 75.68C87.831 75.36 88.439 75.2 88.887 75.2C89.143 75.328 89.335 75.616 89.463 76.064C89.655 76.448 89.751 76.8 89.751 77.12C89.239 77.568 88.631 78.016 87.927 78.464C87.223 78.912 86.487 79.328 85.719 79.712C84.951 80.096 84.183 80.416 83.415 80.672C82.711 80.928 82.071 81.056 81.495 81.056C79.639 81.056 78.103 80.768 76.887 80.192C75.735 79.68 74.807 78.976 74.103 78.08C73.463 77.184 73.015 76.128 72.759 74.912C72.503 73.632 72.375 72.288 72.375 70.88C72.375 70.112 72.439 69.248 72.567 68.288C72.695 67.328 72.951 66.208 73.335 64.928C73.719 63.584 74.263 62.016 74.967 60.224C75.671 58.368 76.567 56.16 77.655 53.6C77.527 53.6 76.663 54.048 75.063 54.944C73.463 55.84 71.735 57.216 69.879 59.072C66.871 61.952 64.151 64.8 61.719 67.616C59.351 70.432 56.919 73.568 54.423 77.024C53.015 79.008 51.767 80.672 50.679 82.016C49.655 83.424 48.759 84.352 47.991 84.8C46.647 84.032 45.655 82.944 45.015 81.536C44.375 80.192 43.895 78.784 43.575 77.312C43.575 76.096 43.735 74.56 44.055 72.704C44.439 70.848 44.919 68.8 45.495 66.56C46.135 64.256 46.903 61.856 47.799 59.36C48.695 56.864 49.687 54.368 50.775 51.872C53.207 46.24 55.415 41.824 57.399 38.624C59.447 35.424 60.727 33.696 61.239 33.44ZM97.7228 70.976C97.7228 68.672 98.2988 65.472 99.4508 61.376C100.667 57.28 102.235 52.8 104.155 47.936C106.075 43.072 108.251 38.048 110.683 32.864C113.115 27.68 115.547 22.848 117.979 18.368C120.475 13.888 122.843 10.016 125.083 6.752C127.387 3.488 129.339 1.28 130.939 0.127998C131.835 0.191998 132.795 0.575996 133.819 1.27999C134.907 1.984 135.899 2.848 136.795 3.872C137.691 4.832 138.427 5.856 139.003 6.944C139.643 8.032 139.963 9.024 139.963 9.92C137.083 12.224 134.139 15.2 131.131 18.848C128.187 22.432 125.371 26.4 122.683 30.752C119.995 35.04 117.499 39.616 115.195 44.48C112.955 49.28 111.067 54.016 109.531 58.688C111.579 55.168 113.723 51.968 115.963 49.088C118.203 46.208 120.443 43.744 122.683 41.696C124.923 39.648 127.099 38.08 129.211 36.992C131.387 35.84 133.435 35.232 135.355 35.168C138.171 37.216 139.579 39.936 139.579 43.328C139.579 45.376 139.163 47.456 138.331 49.568C137.499 51.616 136.379 53.536 134.971 55.328C133.627 57.056 132.059 58.56 130.267 59.84C128.539 61.056 126.715 61.856 124.795 62.24C125.435 64.48 126.235 66.752 127.195 69.056C128.219 71.36 129.403 73.6 130.747 75.776C132.155 77.952 133.723 79.968 135.451 81.824C137.243 83.68 139.259 85.248 141.499 86.528C141.179 87.168 140.699 87.808 140.059 88.448C139.419 89.088 138.651 89.632 137.755 90.08C136.859 90.592 135.867 90.976 134.779 91.232C133.755 91.552 132.731 91.712 131.707 91.712C129.979 91.712 128.347 90.848 126.811 89.12C125.339 87.392 123.995 84.896 122.779 81.632C121.819 79.008 120.891 75.872 119.995 72.224C119.099 68.576 118.299 64.768 117.595 60.8C118.491 60.224 119.611 59.392 120.955 58.304C122.299 57.152 123.707 55.84 125.179 54.368C130.811 48.928 133.627 44.224 133.627 40.256C133.627 39.744 133.275 39.488 132.571 39.488C131.291 39.552 129.787 40.16 128.059 41.312C126.331 42.464 124.475 44.064 122.491 46.112C120.571 48.16 118.587 50.56 116.539 53.312C114.555 56.064 112.635 59.04 110.779 62.24C110.011 63.52 109.307 64.992 108.667 66.656C108.027 68.32 107.451 70.048 106.939 71.84C106.491 73.568 106.139 75.296 105.883 77.024C105.627 78.752 105.499 80.352 105.499 81.824C105.499 82.72 105.595 83.456 105.787 84.032C103.803 83.84 102.587 83.328 102.139 82.496C101.627 81.728 101.179 81.088 100.795 80.576C100.475 80.128 100.123 79.744 99.7388 79.424C99.1628 78.976 98.6828 78.016 98.2988 76.544C97.9148 75.072 97.7228 73.216 97.7228 70.976ZM171.268 77.888C170.052 76.864 169.22 75.584 168.772 74.048C168.388 72.512 168.196 71.2 168.196 70.112C168.196 68.768 168.356 67.616 168.676 66.656C168.42 66.656 167.844 67.168 166.948 68.192C166.052 69.216 165.06 70.432 163.972 71.84C162.948 73.248 161.924 74.624 160.9 75.968C159.876 77.312 159.108 78.304 158.596 78.944C157.764 79.84 156.964 80.544 156.196 81.056C155.492 81.568 154.916 81.856 154.468 81.92C153.444 81.856 152.356 81.632 151.204 81.248C150.116 80.928 149.06 80.448 148.036 79.808C147.076 79.168 146.212 78.4 145.444 77.504C144.74 76.608 144.26 75.584 144.004 74.432C144.004 72.64 144.036 71.168 144.1 70.016C144.228 68.864 144.452 67.616 144.772 66.272C145.348 63.84 146.18 61.088 147.268 58.016C148.42 54.944 149.732 51.936 151.204 48.992C152.676 45.984 154.308 43.2 156.1 40.64C157.956 38.016 159.908 35.968 161.956 34.496C162.532 34.496 163.204 34.56 163.972 34.688C164.74 34.752 165.508 34.912 166.276 35.168C167.108 35.424 167.876 35.744 168.58 36.128C169.348 36.448 169.988 36.896 170.5 37.472C169.924 38.112 168.452 40.256 166.084 43.904C163.78 47.552 161.188 52.8 158.308 59.648C157.988 60.352 157.604 61.376 157.156 62.72C156.708 64.064 156.26 65.472 155.812 66.944C155.364 68.416 154.98 69.856 154.66 71.264C154.404 72.672 154.276 73.792 154.276 74.624C154.276 75.136 154.34 75.52 154.468 75.776C154.66 76.032 154.82 76.224 154.948 76.352C155.908 75.968 157.124 74.912 158.596 73.184C160.068 71.456 162.116 68.8 164.74 65.216C165.38 64.32 166.116 63.296 166.948 62.144C167.844 60.992 168.74 59.776 169.636 58.496C170.532 57.152 171.364 55.776 172.132 54.368C172.964 52.96 173.636 51.552 174.148 50.144C174.404 49.376 174.724 48.48 175.108 47.456C175.556 46.368 176.068 45.248 176.644 44.096C177.284 42.944 177.988 41.792 178.756 40.64C179.588 39.424 180.548 38.304 181.636 37.28C182.468 37.28 183.364 37.376 184.324 37.568C185.284 37.76 186.18 38.016 187.012 38.336C187.908 38.592 188.676 38.912 189.316 39.296C189.956 39.616 190.436 39.968 190.756 40.352C189.604 43.168 188.324 45.952 186.916 48.704C185.508 51.456 184.196 54.176 182.98 56.864C181.764 59.488 180.74 62.112 179.908 64.736C179.076 67.36 178.66 69.92 178.66 72.416C178.66 73.76 178.756 74.944 178.948 75.968C179.204 76.928 179.46 77.76 179.716 78.464C179.972 79.104 180.196 79.648 180.388 80.096C180.644 80.544 180.772 80.928 180.772 81.248C180.772 81.312 180.708 81.408 180.58 81.536C180.516 81.6 180.452 81.632 180.388 81.632C179.94 81.632 179.364 81.536 178.66 81.344C177.956 81.152 177.156 80.864 176.26 80.48C175.428 80.16 174.564 79.776 173.668 79.328C172.836 78.88 172.036 78.4 171.268 77.888Z" fill="#343434"/>
</svg>
